<?xml version="1.0" encoding="utf-8"?>
<!-- Generator: Adobe Illustrator 18.0.0, SVG Export Plug-In . SVG Version: 6.00 Build 0)  -->
<!DOCTYPE svg PUBLIC "-//W3C//DTD SVG 1.1//EN" "http://www.w3.org/Graphics/SVG/1.1/DTD/svg11.dtd">
<svg version="1.1" id="Layer_1" xmlns="http://www.w3.org/2000/svg" xmlns:xlink="http://www.w3.org/1999/xlink" x="0px" y="0px"
	 viewBox="0 0 249 71.5" enable-background="new 0 0 249 71.5" xml:space="preserve">
<g>
	<path fill="#010101" d="M249,64.3c0,4-3.2,7.2-7.2,7.2H7.2c-4,0-7.2-3.2-7.2-7.2V7.2C0,3.2,3.2,0,7.2,0h234.7c4,0,7.2,3.2,7.2,7.2
		L249,64.3L249,64.3z"/>
	<g>
		<g>
			<path fill="#FFFFFF" d="M54.7,35.3c-0.1-6,4.9-9,5.2-9.1c-2.8-4.1-7.2-4.7-8.7-4.7c-3.7-0.4-7.2,2.2-9.1,2.2
				c-1.9,0-4.8-2.2-7.9-2.1c-4,0.1-7.7,2.4-9.8,6c-4.2,7.3-1.1,18.1,3,24c2,2.9,4.4,6.2,7.5,6c3-0.1,4.2-1.9,7.8-1.9
				c3.6,0,4.7,1.9,7.9,1.9c3.3-0.1,5.3-2.9,7.3-5.8c2.3-3.3,3.3-6.6,3.3-6.8C61,44.9,54.7,42.6,54.7,35.3z"/>
			<path fill="#FFFFFF" d="M48.7,17.6c1.6-2,2.8-4.8,2.4-7.6c-2.4,0.1-5.3,1.6-7,3.6c-1.5,1.8-2.9,4.7-2.5,7.4
				C44.3,21.2,47,19.6,48.7,17.6z"/>
		</g>
	</g>
	<g>
		<path fill="#FFFFFF" d="M98.7,57.3h-4.2l-2.3-7.3H84l-2.2,7.3h-4.1l8-24.9h4.9L98.7,57.3z M91.4,46.9l-2.1-6.5
			c-0.2-0.7-0.6-2.2-1.3-4.7H88c-0.2,1.1-0.6,2.6-1.2,4.7l-2.1,6.5H91.4z"/>
		<path fill="#FFFFFF" d="M119.3,48.1c0,3.1-0.8,5.5-2.5,7.2c-1.5,1.6-3.3,2.4-5.5,2.4c-2.4,0-4.1-0.8-5.1-2.5h-0.1v9.5h-4V45.2
			c0-1.9-0.1-3.9-0.1-5.9h3.5l0.2,2.8h0.1c1.3-2.1,3.3-3.2,6.1-3.2c2.1,0,3.9,0.8,5.3,2.5C118.6,43.1,119.3,45.3,119.3,48.1z
			 M115.2,48.2c0-1.7-0.4-3.2-1.2-4.3c-0.9-1.2-2-1.8-3.5-1.8c-1,0-1.9,0.3-2.7,1c-0.8,0.7-1.3,1.5-1.6,2.6
			c-0.1,0.5-0.2,0.9-0.2,1.2v3c0,1.3,0.4,2.4,1.2,3.3c0.8,0.9,1.8,1.3,3.1,1.3c1.5,0,2.7-0.6,3.5-1.7
			C114.8,51.6,115.2,50.1,115.2,48.2z"/>
		<path fill="#FFFFFF" d="M139.9,48.1c0,3.1-0.8,5.5-2.5,7.2c-1.5,1.6-3.3,2.4-5.5,2.4c-2.4,0-4.1-0.8-5.1-2.5h-0.1v9.5h-4V45.2
			c0-1.9-0.1-3.9-0.1-5.9h3.5l0.2,2.8h0.1c1.3-2.1,3.3-3.2,6.1-3.2c2.1,0,3.9,0.8,5.3,2.5C139.2,43.1,139.9,45.3,139.9,48.1z
			 M135.8,48.2c0-1.7-0.4-3.2-1.2-4.3c-0.9-1.2-2-1.8-3.5-1.8c-1,0-1.9,0.3-2.7,1c-0.8,0.7-1.3,1.5-1.6,2.6
			c-0.1,0.5-0.2,0.9-0.2,1.2v3c0,1.3,0.4,2.4,1.2,3.3c0.8,0.9,1.8,1.3,3.1,1.3c1.5,0,2.7-0.6,3.5-1.7
			C135.4,51.6,135.8,50.1,135.8,48.2z"/>
		<path fill="#FFFFFF" d="M163,50.3c0,2.1-0.7,3.8-2.2,5.2c-1.6,1.5-3.9,2.2-6.8,2.2c-2.7,0-4.8-0.5-6.5-1.6l0.9-3.3
			c1.7,1.1,3.7,1.6,5.8,1.6c1.5,0,2.7-0.3,3.5-1c0.8-0.7,1.3-1.6,1.3-2.7c0-1-0.3-1.9-1-2.6c-0.7-0.7-1.8-1.3-3.4-1.9
			c-4.4-1.6-6.5-4-6.5-7.1c0-2,0.8-3.7,2.3-5c1.5-1.3,3.6-2,6.1-2c2.3,0,4.1,0.4,5.6,1.2l-1,3.2c-1.4-0.8-3-1.1-4.8-1.1
			c-1.4,0-2.5,0.3-3.3,1c-0.7,0.6-1,1.4-1,2.3c0,1,0.4,1.8,1.1,2.4c0.7,0.6,1.9,1.2,3.6,1.9c2.1,0.9,3.7,1.9,4.7,3
			C162.5,47.1,163,48.6,163,50.3z"/>
		<path fill="#FFFFFF" d="M176.2,42.3h-4.4V51c0,2.2,0.8,3.3,2.3,3.3c0.7,0,1.3-0.1,1.8-0.2l0.1,3c-0.8,0.3-1.8,0.4-3.1,0.4
			c-1.6,0-2.8-0.5-3.7-1.4c-0.9-1-1.3-2.6-1.3-4.8v-9h-2.6v-3h2.6V36l3.9-1.2v4.5h4.4V42.3z"/>
		<path fill="#FFFFFF" d="M196,48.1c0,2.8-0.8,5-2.4,6.8c-1.7,1.8-3.8,2.7-6.6,2.7c-2.6,0-4.7-0.9-6.3-2.6c-1.6-1.7-2.3-4-2.3-6.6
			c0-2.8,0.8-5.1,2.4-6.8c1.6-1.8,3.8-2.7,6.5-2.7c2.6,0,4.8,0.9,6.4,2.6C195.2,43.3,196,45.4,196,48.1z M191.9,48.3
			c0-1.7-0.4-3.1-1.1-4.3c-0.8-1.4-2-2.1-3.6-2.1c-1.6,0-2.8,0.7-3.7,2.1c-0.7,1.2-1.1,2.6-1.1,4.3c0,1.7,0.4,3.1,1.1,4.3
			c0.9,1.4,2.1,2.1,3.6,2.1c1.5,0,2.7-0.7,3.6-2.2C191.5,51.3,191.9,49.9,191.9,48.3z"/>
		<path fill="#FFFFFF" d="M209,42.8c-0.4-0.1-0.8-0.1-1.3-0.1c-1.4,0-2.5,0.5-3.3,1.6c-0.7,0.9-1,2.1-1,3.5v9.4h-4l0-12.3
			c0-2.1-0.1-4-0.1-5.7h3.5l0.1,3.4h0.1c0.4-1.2,1.1-2.1,2-2.8c0.9-0.6,1.8-1,2.9-1c0.4,0,0.7,0,1,0.1V42.8z"/>
		<path fill="#FFFFFF" d="M226.8,47.4c0,0.7,0,1.3-0.1,1.8h-12c0,1.8,0.6,3.1,1.7,4.1c1,0.8,2.3,1.3,3.9,1.3c1.8,0,3.4-0.3,4.8-0.8
			l0.6,2.8c-1.7,0.7-3.7,1.1-6,1.1c-2.8,0-5-0.8-6.6-2.5c-1.6-1.6-2.4-3.8-2.4-6.6c0-2.7,0.7-5,2.2-6.8c1.5-1.9,3.6-2.9,6.3-2.9
			c2.6,0,4.5,1,5.9,2.9C226.3,43.3,226.8,45.2,226.8,47.4z M223,46.4c0-1.2-0.2-2.2-0.8-3.1c-0.7-1.1-1.7-1.7-3.2-1.7
			c-1.3,0-2.4,0.5-3.2,1.6c-0.7,0.9-1.1,1.9-1.2,3.1H223z"/>
	</g>
	<g>
		<g>
			<path fill="#FFFFFF" d="M79.5,11.9c0.4-0.3,0.9-0.5,1.4-0.6c0.5-0.2,1.2-0.3,1.9-0.3c1.2,0,2.1,0.3,2.8,0.8c0.7,0.6,1,1.3,1,2.2
				c0,0.8-0.2,1.4-0.7,1.9c-0.5,0.5-1,0.8-1.7,1v0.1c0.4,0.1,0.8,0.2,1.1,0.3c0.3,0.2,0.6,0.4,0.9,0.6c0.3,0.3,0.5,0.5,0.6,0.9
				c0.1,0.3,0.2,0.7,0.2,1.1c0,0.7-0.1,1.2-0.4,1.7c-0.3,0.5-0.6,0.8-1.1,1.1c-0.4,0.3-0.9,0.5-1.5,0.6c-0.5,0.1-1.1,0.2-1.6,0.2
				c-0.6,0-1.2-0.1-1.7-0.2c-0.6-0.1-1.1-0.3-1.6-0.6l0.5-1.5c0.3,0.2,0.7,0.3,1.2,0.5c0.5,0.1,1,0.2,1.5,0.2c0.8,0,1.5-0.2,1.9-0.6
				c0.5-0.4,0.7-0.9,0.7-1.5c0-0.4-0.1-0.8-0.3-1c-0.2-0.3-0.4-0.5-0.7-0.6c-0.3-0.2-0.6-0.3-1-0.3c-0.4-0.1-0.7-0.1-1.1-0.1h-0.8
				v-1.5H82c0.4,0,0.7,0,1-0.1c0.3-0.1,0.6-0.2,0.8-0.4c0.2-0.2,0.4-0.4,0.6-0.6c0.1-0.2,0.2-0.5,0.2-0.8c0-0.5-0.2-1-0.6-1.3
				c-0.4-0.3-0.9-0.5-1.6-0.5c-0.4,0-0.9,0.1-1.3,0.2c-0.4,0.1-0.8,0.3-1.2,0.5L79.5,11.9z"/>
			<path fill="#FFFFFF" d="M95.1,23.5l-0.1-1h-0.1c-0.6,0.8-1.5,1.2-2.6,1.2c-0.4,0-0.8-0.1-1.1-0.2c-0.3-0.1-0.6-0.3-0.9-0.5
				c-0.2-0.2-0.4-0.5-0.6-0.8c-0.1-0.3-0.2-0.7-0.2-1c0-1.1,0.4-1.9,1.3-2.5c0.9-0.5,2.2-0.8,3.8-0.8v-0.2c0-1.2-0.6-1.7-1.8-1.7
				c-0.9,0-1.6,0.2-2.3,0.7l-0.4-1.3c0.8-0.5,1.8-0.8,3-0.8c2.3,0,3.5,1.2,3.5,3.6v3.2c0,0.9,0,1.6,0.1,2.1H95.1z M94.9,19.1
				c-1.1,0-1.9,0.1-2.4,0.4c-0.5,0.3-0.8,0.7-0.8,1.4c0,0.5,0.1,0.8,0.4,1c0.3,0.2,0.6,0.3,1,0.3c0.3,0,0.5,0,0.7-0.1
				c0.2-0.1,0.4-0.2,0.6-0.4c0.2-0.2,0.3-0.3,0.4-0.6c0.1-0.2,0.2-0.5,0.2-0.7V19.1z"/>
			<path fill="#FFFFFF" d="M106.2,14.6v1.6h-3.7v7.2h-2v-8.8H106.2z"/>
			<path fill="#FFFFFF" d="M117.4,18.9c0,0.7-0.1,1.3-0.3,1.9c-0.2,0.6-0.5,1.1-0.8,1.5c-0.3,0.4-0.8,0.7-1.2,1
				c-0.5,0.2-1,0.3-1.6,0.3c-1.2,0-2-0.4-2.5-1.3h0V27h-2v-9.5c0-0.5,0-0.9,0-1.4c0-0.5,0-1-0.1-1.5h1.7l0.1,1.4h0
				c0.6-1.1,1.6-1.6,3-1.6c0.5,0,1,0.1,1.4,0.3c0.4,0.2,0.8,0.5,1.2,0.9c0.3,0.4,0.6,0.9,0.8,1.4C117.3,17.7,117.4,18.3,117.4,18.9z
				 M115.4,19c0-0.4-0.1-0.8-0.2-1.2c-0.1-0.4-0.3-0.7-0.5-0.9c-0.2-0.3-0.4-0.5-0.7-0.6c-0.3-0.2-0.6-0.2-1-0.2
				c-0.3,0-0.5,0.1-0.8,0.2c-0.3,0.1-0.5,0.3-0.7,0.5c-0.2,0.2-0.4,0.5-0.5,0.7c-0.1,0.3-0.2,0.6-0.2,0.9v1.5c0,0.3,0.1,0.6,0.2,0.9
				c0.1,0.3,0.2,0.5,0.4,0.7c0.2,0.2,0.4,0.4,0.7,0.5c0.3,0.1,0.5,0.2,0.9,0.2c0.7,0,1.3-0.3,1.7-0.8C115.2,20.7,115.4,20,115.4,19z
				"/>
			<path fill="#FFFFFF" d="M128,14.6l-2.2,6.1c-0.5,1.4-1,2.6-1.5,3.6c-0.5,0.9-1,1.6-1.4,2c-0.7,0.6-1.4,1-2.2,1.1l-0.5-1.6
				c0.5-0.1,1-0.4,1.5-0.8c0.5-0.4,0.8-0.9,1.1-1.5c0.1-0.2,0.1-0.3,0.1-0.4c0-0.1,0-0.2-0.1-0.4l-3.2-8.1h2.2l1.7,4.9
				c0.1,0.2,0.2,0.5,0.3,0.8c0.1,0.3,0.2,0.6,0.3,1h0c0.1-0.2,0.1-0.4,0.2-0.7c0.1-0.3,0.2-0.6,0.3-1l1.5-4.9H128z"/>
			<path fill="#FFFFFF" d="M131.3,18.3h0.9c0.7,0,1.2-0.1,1.5-0.4c0.4-0.2,0.5-0.5,0.5-0.9c0-0.4-0.2-0.7-0.5-0.9
				c-0.3-0.2-0.7-0.3-1.3-0.3c-0.4,0-0.7,0.1-1.1,0.2c-0.4,0.1-0.7,0.3-1,0.4l-0.5-1.3c0.5-0.3,1-0.5,1.5-0.6c0.5-0.1,1-0.2,1.5-0.2
				c0.4,0,0.8,0,1.2,0.1c0.4,0.1,0.8,0.2,1.1,0.4c0.3,0.2,0.6,0.4,0.8,0.7c0.2,0.3,0.3,0.7,0.3,1.1c0,0.3-0.1,0.5-0.2,0.7
				c-0.1,0.2-0.3,0.4-0.4,0.6c-0.2,0.2-0.4,0.3-0.6,0.4c-0.2,0.1-0.5,0.2-0.7,0.2v0.1c0.3,0,0.6,0.1,0.8,0.2
				c0.3,0.1,0.5,0.3,0.7,0.4c0.2,0.2,0.4,0.4,0.5,0.6c0.1,0.2,0.2,0.5,0.2,0.8c0,0.5-0.1,1-0.4,1.3c-0.3,0.3-0.6,0.6-1,0.8
				c-0.4,0.2-0.8,0.4-1.3,0.4c-0.5,0.1-0.9,0.1-1.4,0.1c-0.5,0-1.1-0.1-1.6-0.2c-0.5-0.1-1-0.3-1.4-0.5l0.5-1.3
				c0.3,0.2,0.7,0.3,1.1,0.4c0.4,0.1,0.8,0.2,1.2,0.2c0.7,0,1.2-0.1,1.5-0.4c0.4-0.3,0.5-0.6,0.5-1c0-0.3-0.1-0.5-0.2-0.6
				c-0.1-0.2-0.3-0.3-0.5-0.4c-0.2-0.1-0.5-0.2-0.8-0.2c-0.3,0-0.6-0.1-0.9-0.1h-0.9V18.3z"/>
			<path fill="#FFFFFF" d="M141.8,14.6v3.1c0,0.7,0,1.4,0,1.9c0,0.6-0.1,1.2-0.1,1.8l0,0c0.2-0.5,0.5-0.9,0.7-1.4
				c0.2-0.4,0.5-0.9,0.7-1.4l2.2-4.2h2.5v8.8h-1.9v-3.1c0-0.7,0-1.3,0-2c0-0.7,0.1-1.3,0.1-2H146c-0.2,0.5-0.4,1-0.6,1.4
				c-0.2,0.4-0.4,0.8-0.6,1.2c-0.4,0.7-0.7,1.5-1.1,2.2c-0.4,0.7-0.8,1.5-1.2,2.2h-2.5v-8.8H141.8z"/>
			<path fill="#FFFFFF" d="M158.1,14.6v1.6h-2.7v7.2h-1.9v-7.2h-2.7v-1.6H158.1z"/>
			<path fill="#FFFFFF" d="M168.1,18.6c0,0.2,0,0.3,0,0.5c0,0.2,0,0.3-0.1,0.4h-5.9c0,0.8,0.3,1.5,0.8,1.9c0.5,0.5,1.2,0.7,2,0.7
				c0.9,0,1.7-0.1,2.4-0.4l0.3,1.4c-0.8,0.4-1.8,0.5-3,0.5c-0.7,0-1.3-0.1-1.8-0.3c-0.5-0.2-1-0.5-1.4-0.9c-0.4-0.4-0.7-0.9-0.9-1.4
				c-0.2-0.5-0.3-1.2-0.3-1.8c0-0.7,0.1-1.3,0.3-1.9c0.2-0.6,0.5-1.1,0.8-1.5c0.4-0.4,0.8-0.8,1.3-1c0.5-0.2,1.1-0.4,1.7-0.4
				c0.6,0,1.1,0.1,1.5,0.3c0.5,0.2,0.8,0.5,1.2,0.9c0.3,0.4,0.6,0.8,0.7,1.3C168,17.4,168.1,18,168.1,18.6z M166.3,18.1
				c0-0.7-0.2-1.2-0.5-1.7c-0.3-0.4-0.8-0.6-1.4-0.6c-0.6,0-1.1,0.2-1.4,0.7c-0.4,0.4-0.6,1-0.7,1.7H166.3z"/>
			<path fill="#FFFFFF" d="M176,14.7c0.4-0.1,0.8-0.1,1.3-0.1c0.5,0,1.1-0.1,1.7-0.1c0.4,0,0.8,0,1.2,0.1c0.5,0,0.9,0.1,1.3,0.3
				c0.4,0.2,0.8,0.4,1,0.7c0.3,0.3,0.4,0.7,0.4,1.2c0,0.3-0.1,0.5-0.1,0.7c-0.1,0.2-0.2,0.4-0.4,0.6c-0.2,0.2-0.4,0.3-0.6,0.4
				c-0.2,0.1-0.4,0.2-0.7,0.2l0,0.1c0.6,0.1,1.2,0.3,1.6,0.7c0.4,0.4,0.6,0.8,0.6,1.5c0,0.6-0.2,1.1-0.5,1.5
				c-0.3,0.4-0.8,0.6-1.3,0.8c-0.5,0.2-1,0.3-1.6,0.3c-0.5,0-1,0.1-1.5,0.1c-0.5,0-1,0-1.4,0c-0.5,0-0.9,0-1.2-0.1V14.7z
				 M177.9,18.2h1c0.3,0,0.6,0,0.9-0.1c0.3,0,0.5-0.1,0.7-0.2c0.2-0.1,0.4-0.2,0.5-0.4c0.1-0.2,0.2-0.3,0.2-0.6
				c0-0.4-0.2-0.7-0.5-0.9c-0.3-0.2-0.9-0.3-1.6-0.3c-0.2,0-0.4,0-0.5,0c-0.1,0-0.4,0-0.6,0.1V18.2z M177.9,22.1
				c0.2,0,0.4,0,0.6,0.1c0.2,0,0.4,0,0.6,0c0.3,0,0.5,0,0.8-0.1c0.3,0,0.5-0.1,0.8-0.2c0.2-0.1,0.4-0.2,0.6-0.4
				c0.1-0.2,0.2-0.4,0.2-0.7c0-0.5-0.2-0.9-0.7-1c-0.4-0.2-1.1-0.3-1.8-0.3h-1V22.1z"/>
		</g>
	</g>
</g>
</svg>
