<?xml version="1.0" encoding="utf-8"?>
<!-- Generator: Adobe Illustrator 18.0.0, SVG Export Plug-In . SVG Version: 6.00 Build 0)  -->
<!DOCTYPE svg PUBLIC "-//W3C//DTD SVG 1.1//EN" "http://www.w3.org/Graphics/SVG/1.1/DTD/svg11.dtd">
<svg version="1.1" id="Layer_1" xmlns="http://www.w3.org/2000/svg" xmlns:xlink="http://www.w3.org/1999/xlink" x="0px" y="0px"
	 viewBox="0 0 249 81.5" enable-background="new 0 0 249 81.5" xml:space="preserve">
<g>
	<path fill="#010101" d="M249,74.3c0,4-3.2,7.2-7.2,7.2H7.2c-4,0-7.2-3.2-7.2-7.2V7.2C0,3.2,3.2,0,7.2,0h234.7c4,0,7.2,3.2,7.2,7.2
		L249,74.3L249,74.3z"/>
	<g>
		<g id="PLAY">
			<defs>
				<path id="SVGID_1_" d="M46.9,44.8l-8.1-4.7c0,0-14.8-8.5-15.6-9c-0.9-0.5-1.7-0.2-1.7,0.8c0,1.7,0,18.2,0,18.2s0,17.8,0,18.6
					c0,0.8,0.6,1.1,1.4,0.7c0.8-0.4,16-9.2,16-9.2l8.1-4.7c0,0,6.9-4,7.8-4.5c0.9-0.5,0.8-1.2,0.1-1.7C54,48.9,46.9,44.8,46.9,44.8z
					"/>
			</defs>
			<clipPath id="SVGID_2_">
				<use xlink:href="#SVGID_1_"  overflow="visible"/>
			</clipPath>
			<linearGradient id="SVGID_3_" gradientUnits="userSpaceOnUse" x1="31.5136" y1="30.2247" x2="31.5136" y2="70.002">
				<stop  offset="0" style="stop-color:#257CB0"/>
				<stop  offset="0.2863" style="stop-color:#4A93B5"/>
				<stop  offset="0.767" style="stop-color:#78BCBB"/>
				<stop  offset="1" style="stop-color:#89CFBD"/>
			</linearGradient>
			<polygon clip-path="url(#SVGID_2_)" fill="url(#SVGID_3_)" points="21.5,30.2 21.5,50.1 21.5,70 41.5,50.1 			"/>
			<linearGradient id="SVGID_4_" gradientUnits="userSpaceOnUse" x1="21.4843" y1="40.0977" x2="46.9306" y2="40.0977">
				<stop  offset="0" style="stop-color:#52C1AD"/>
				<stop  offset="1" style="stop-color:#DEE89A"/>
			</linearGradient>
			<polygon clip-path="url(#SVGID_2_)" fill="url(#SVGID_4_)" points="46.9,44.8 38.8,40.1 21.5,30.1 21.5,30.2 41.5,50.1 			"/>
			<linearGradient id="SVGID_5_" gradientUnits="userSpaceOnUse" x1="34.2069" y1="50.1153" x2="34.2069" y2="70.1465">
				<stop  offset="0" style="stop-color:#EC413D"/>
				<stop  offset="0.1668" style="stop-color:#DA4452"/>
				<stop  offset="0.5748" style="stop-color:#B0487A"/>
				<stop  offset="0.8619" style="stop-color:#954A92"/>
				<stop  offset="1" style="stop-color:#8A4A9D"/>
			</linearGradient>
			<polygon clip-path="url(#SVGID_2_)" fill="url(#SVGID_5_)" points="21.5,70 21.5,70.1 38.8,60.1 46.9,55.5 41.5,50.1 			"/>
			<linearGradient id="SVGID_6_" gradientUnits="userSpaceOnUse" x1="48.8632" y1="44.7735" x2="48.8632" y2="55.4551">
				<stop  offset="0" style="stop-color:#F58879"/>
				<stop  offset="0.1194" style="stop-color:#F69079"/>
				<stop  offset="0.7128" style="stop-color:#FCB877"/>
				<stop  offset="1" style="stop-color:#FEC874"/>
			</linearGradient>
			<polygon clip-path="url(#SVGID_2_)" fill="url(#SVGID_6_)" points="46.9,44.8 41.5,50.1 46.9,55.5 56.2,50.1 			"/>
		</g>
		<g>
			<path fill="#FFFFFF" d="M181.5,59c-1.1,0-2-0.2-2.9-0.6c-0.9-0.4-1.6-1-2.2-1.8h-0.2c0.1,0.9,0.2,1.8,0.2,2.7v6.6h-2.4V42.5h2
				l0.3,2.2h0.1c0.6-0.9,1.4-1.5,2.2-1.9c0.8-0.4,1.8-0.6,2.9-0.6c2.1,0,3.8,0.7,5,2.2c1.2,1.5,1.7,3.5,1.7,6.2
				c0,2.7-0.6,4.7-1.8,6.2C185.2,58.2,183.6,59,181.5,59z M181.1,44.3c-1.7,0-2.8,0.5-3.6,1.4c-0.7,0.9-1.1,2.4-1.1,4.4v0.5
				c0,2.3,0.4,3.9,1.1,4.9c0.8,1,2,1.5,3.6,1.5c1.4,0,2.5-0.6,3.3-1.7c0.8-1.1,1.2-2.7,1.2-4.7c0-2-0.4-3.6-1.2-4.6
				C183.6,44.8,182.5,44.3,181.1,44.3z"/>
			<path fill="#FFFFFF" d="M193.8,58.7h-2.4V35.7h2.4V58.7z"/>
			<path fill="#FFFFFF" d="M207.9,58.7l-0.5-2.3h-0.1c-0.8,1-1.6,1.7-2.4,2.1c-0.8,0.4-1.8,0.5-3,0.5c-1.6,0-2.9-0.4-3.8-1.2
				c-0.9-0.8-1.4-2-1.4-3.5c0-3.3,2.6-5,7.8-5.1l2.7-0.1v-1c0-1.3-0.3-2.2-0.8-2.8c-0.5-0.6-1.4-0.9-2.6-0.9c-1.3,0-2.9,0.4-4.6,1.2
				l-0.8-1.9c0.8-0.4,1.7-0.8,2.6-1c1-0.2,1.9-0.4,2.9-0.4c1.9,0,3.4,0.4,4.3,1.3c0.9,0.9,1.4,2.2,1.4,4.1v11H207.9z M202.4,56.9
				c1.5,0,2.7-0.4,3.6-1.3c0.9-0.8,1.3-2,1.3-3.5v-1.5l-2.5,0.1c-1.9,0.1-3.3,0.4-4.2,0.9c-0.9,0.5-1.3,1.4-1.3,2.5
				c0,0.9,0.3,1.6,0.8,2C200.7,56.7,201.4,56.9,202.4,56.9z"/>
			<path fill="#FFFFFF" d="M211.1,42.5h2.6l3.5,9.2c0.8,2.1,1.3,3.6,1.4,4.6h0.1c0.1-0.5,0.4-1.4,0.8-2.6c0.4-1.2,1.7-4.9,4-11.2
				h2.6l-6.9,18.4c-0.7,1.8-1.5,3.1-2.4,3.9c-0.9,0.8-2,1.1-3.4,1.1c-0.8,0-1.5-0.1-2.2-0.2v-2c0.5,0.1,1.1,0.2,1.8,0.2
				c1.7,0,2.9-0.9,3.6-2.8l0.9-2.3L211.1,42.5z"/>
		</g>
		<g>
			<path fill="#FFFFFF" d="M137.1,44c0.8,0.6,2.4,2,2.4,4.6c0,2.5-1.4,3.7-2.8,4.8c-0.4,0.4-0.9,0.9-0.9,1.7c0,0.7,0.5,1.1,0.9,1.5
				l1.2,0.9c1.5,1.2,2.8,2.4,2.8,4.7c0,3.2-3.1,6.4-8.9,6.4c-4.9,0-7.3-2.3-7.3-4.8c0-1.2,0.6-2.9,2.6-4.1c2.1-1.3,4.9-1.5,6.5-1.6
				c-0.5-0.6-1-1.2-1-2.3c0-0.6,0.2-0.9,0.3-1.3c-0.4,0-0.7,0.1-1.1,0.1c-3.6,0-5.6-2.7-5.6-5.3c0-1.6,0.7-3.3,2.2-4.5
				c1.9-1.6,4.2-1.9,6.1-1.9h7l-2.2,1.2H137.1z M134.7,59c-0.3,0-0.4,0-0.8,0c-0.3,0-2.1,0.1-3.6,0.5c-0.7,0.3-2.9,1.1-2.9,3.5
				c0,2.4,2.3,4.1,5.9,4.1c3.2,0,5-1.6,5-3.7C138.4,61.8,137.3,60.8,134.7,59z M135.7,52.6c0.8-0.8,0.8-1.9,0.8-2.5
				c0-2.4-1.5-6.2-4.3-6.2c-0.9,0-1.8,0.4-2.4,1.1c-0.6,0.7-0.7,1.6-0.7,2.5c0,2.3,1.3,6,4.2,6C134.2,53.5,135.1,53.1,135.7,52.6z"
				/>
			<path fill="#FFFFFF" d="M115.8,58.5c-5.4,0-8.2-4.2-8.2-8c0-4.4,3.6-8.2,8.7-8.2c5,0,8.1,3.9,8.1,8
				C124.4,54.3,121.3,58.5,115.8,58.5z M120,55.7c0.8-1.1,1-2.4,1-3.8c0-3-1.4-8.6-5.6-8.6c-1.1,0-2.2,0.4-3,1.1
				c-1.3,1.2-1.6,2.7-1.6,4.1c0,3.3,1.7,8.8,5.7,8.8C117.9,57.5,119.3,56.8,120,55.7z"/>
			<path fill="#FFFFFF" d="M97.5,58.5c-5.4,0-8.2-4.2-8.2-8c0-4.4,3.6-8.2,8.7-8.2c5,0,8.1,3.9,8.1,8C106.1,54.3,103,58.5,97.5,58.5
				z M101.8,55.7c0.8-1.1,1-2.4,1-3.8c0-3-1.4-8.6-5.6-8.6c-1.1,0-2.2,0.4-3,1.1c-1.3,1.2-1.6,2.7-1.6,4.1c0,3.3,1.7,8.8,5.7,8.8
				C99.6,57.5,101,56.8,101.8,55.7z"/>
			<path fill="#FFFFFF" d="M86.7,58l-4.9,1.1c-2,0.3-3.7,0.6-5.6,0.6c-9.4,0-12.9-6.9-12.9-12.3c0-6.6,5.1-12.7,13.7-12.7
				c1.8,0,3.6,0.3,5.2,0.7c2.5,0.7,3.7,1.6,4.5,2.1l-2.8,2.7l-1.2,0.3l0.8-1.4c-1.2-1.1-3.3-3.2-7.3-3.2c-5.4,0-9.4,4.1-9.4,10
				c0,6.4,4.6,12.4,12,12.4c2.2,0,3.3-0.4,4.3-0.8V52l-5.1,0.3l2.7-1.5H88l-0.9,0.8c-0.2,0.2-0.3,0.3-0.3,0.5c0,0.3-0.1,1.3-0.1,1.6
				V58z"/>
			<path fill="#FFFFFF" d="M147.8,57c-1.1-0.1-1.4-0.3-1.4-1.6V55V36.1c0-0.1,0-0.2,0-0.2c0.1-1.2,0.5-1.4,1.5-2h-4.9l-2.5,1.2h2.6
				v0l0,0V55v1.1c0,0.7-0.1,0.8-0.9,1.8h6l1.3-0.7C149,57.1,148.4,57,147.8,57z"/>
			<path fill="#FFFFFF" d="M161.6,57.3c-0.4,0.2-0.7,0.4-1.1,0.6c-1.1,0.5-2.3,0.6-3.3,0.6c-1.1,0-2.8-0.1-4.5-1.3
				c-2.4-1.7-3.4-4.6-3.4-7.1c0-5.2,4.2-7.8,7.7-7.8c1.2,0,2.5,0.3,3.5,0.9c1.7,1.1,2.1,2.6,2.4,3.3l-7.9,3.2l-2.6,0.2
				c0.8,4.3,3.7,6.8,6.9,6.8c1.7,0,3-0.6,4.1-1.2L161.6,57.3z M158.5,47.2c0.6-0.2,1-0.4,1-0.9c0-1.3-1.5-2.9-3.3-2.9
				c-1.4,0-3.9,1-3.9,4.7c0,0.6,0.1,1.2,0.1,1.8L158.5,47.2z"/>
		</g>
	</g>
	<g>
		<path fill="#FFFFFF" d="M70.4,15.8c0-0.7-0.2-1.3-0.6-1.7c-0.4-0.4-1-0.6-1.8-0.6c-0.7,0-1.2,0.2-1.6,0.6c-0.4,0.4-0.7,1-0.7,1.7
			h-0.9c0-0.6,0.1-1.1,0.4-1.6c0.3-0.5,0.7-0.9,1.2-1.1c0.5-0.3,1-0.4,1.6-0.4c1,0,1.9,0.3,2.4,0.8c0.6,0.6,0.9,1.3,0.9,2.3
			c0,0.6-0.1,1.1-0.4,1.5c-0.3,0.4-0.7,0.8-1.3,1c0.6,0.2,1.1,0.5,1.4,1c0.3,0.5,0.5,1,0.5,1.7c0,1-0.3,1.8-0.9,2.4
			c-0.6,0.6-1.5,0.9-2.5,0.9c-0.6,0-1.2-0.1-1.7-0.4c-0.5-0.3-0.9-0.7-1.2-1.2c-0.3-0.5-0.4-1.1-0.4-1.8h0.9c0,0.7,0.2,1.3,0.7,1.8
			s1,0.7,1.8,0.7c0.8,0,1.4-0.2,1.9-0.6c0.5-0.4,0.7-1,0.7-1.8c0-0.8-0.2-1.4-0.7-1.8c-0.4-0.4-1.1-0.5-1.9-0.5h-1.1V18H68
			C69.6,18,70.4,17.3,70.4,15.8z"/>
		<path fill="#FFFFFF" d="M79.2,21h-4.3l-1,3.2H73l3.6-11.4h0.8l3.6,11.4h-0.9L79.2,21z M75.1,20.2h3.8L77,14.1L75.1,20.2z"/>
		<path fill="#FFFFFF" d="M89,13.7h-4.9v10.5h-0.9V12.8H89V13.7z"/>
		<path fill="#FFFFFF" d="M92.2,19.6v4.6h-0.9V12.8h3.3c1,0,1.8,0.3,2.4,0.9c0.6,0.6,0.9,1.4,0.9,2.5c0,1.1-0.3,1.9-0.8,2.5
			c-0.6,0.6-1.4,0.9-2.4,0.9H92.2z M92.2,18.7h2.4c0.8,0,1.3-0.2,1.7-0.7c0.4-0.4,0.6-1.1,0.6-1.8s-0.2-1.4-0.6-1.9
			c-0.4-0.5-1-0.7-1.7-0.7h-2.4V18.7z"/>
		<path fill="#FFFFFF" d="M103.5,20l2.6-7.2h1l-3.6,9.4l-0.3,0.7c-0.4,1-1.1,1.4-2,1.4c-0.3,0-0.5,0-0.6-0.1l0.1-0.8
			c0.1,0,0.3,0.1,0.6,0.1c0.5,0,0.9-0.3,1.2-1l0.2-0.4l0.4-1l-3.5-8.4h1L103.5,20z"/>
		<path fill="#FFFFFF" d="M114.6,15.8c0-0.7-0.2-1.3-0.6-1.7c-0.4-0.4-1-0.6-1.8-0.6c-0.7,0-1.2,0.2-1.6,0.6c-0.4,0.4-0.7,1-0.7,1.7
			H109c0-0.6,0.1-1.1,0.4-1.6c0.3-0.5,0.7-0.9,1.2-1.1c0.5-0.3,1-0.4,1.6-0.4c1,0,1.9,0.3,2.4,0.8c0.6,0.6,0.9,1.3,0.9,2.3
			c0,0.6-0.1,1.1-0.4,1.5c-0.3,0.4-0.7,0.8-1.3,1c0.6,0.2,1.1,0.5,1.4,1c0.3,0.5,0.5,1,0.5,1.7c0,1-0.3,1.8-0.9,2.4
			c-0.6,0.6-1.5,0.9-2.5,0.9c-0.6,0-1.2-0.1-1.7-0.4c-0.5-0.3-0.9-0.7-1.2-1.2c-0.3-0.5-0.4-1.1-0.4-1.8h0.9c0,0.7,0.2,1.3,0.7,1.8
			s1,0.7,1.8,0.7c0.8,0,1.4-0.2,1.9-0.6c0.5-0.4,0.7-1,0.7-1.8c0-0.8-0.2-1.4-0.7-1.8c-0.4-0.4-1.1-0.5-1.9-0.5h-1.1V18h1.1
			C113.8,18,114.6,17.3,114.6,15.8z"/>
		<path fill="#FFFFFF" d="M124.4,12.8h0.9v11.4h-0.9v-9.7l-5.3,9.7h-0.9V12.8h0.9v9.7L124.4,12.8z"/>
		<path fill="#FFFFFF" d="M134.7,13.7h-3.2v10.5h-0.9V13.7h-3.2v-0.8h7.4V13.7z"/>
		<path fill="#FFFFFF" d="M142.2,18.8h-4.4v4.6h5.1v0.8h-6V12.8h5.9v0.8h-5v4.3h4.4V18.8z"/>
		<path fill="#FFFFFF" d="M156.4,24.2h-0.9v-5.4h-5.3v5.4h-0.9V12.8h0.9v5.1h5.3v-5.1h0.9V24.2z"/>
		<path fill="#FFFFFF" d="M164.8,21h-4.3l-1,3.2h-0.9l3.6-11.4h0.8l3.6,11.4h-0.9L164.8,21z M160.8,20.2h3.8l-1.9-6.1L160.8,20.2z"
			/>
	</g>
</g>
</svg>
