<?xml version="1.0" encoding="utf-8"?>
<!DOCTYPE svg PUBLIC "-//W3C//DTD SVG 1.1//EN" "http://www.w3.org/Graphics/SVG/1.1/DTD/svg11.dtd">
<svg version="1.1" id="Layer_1" xmlns="http://www.w3.org/2000/svg" xmlns:xlink="http://www.w3.org/1999/xlink" x="0px" y="0px"
	 width="58px" height="58px" viewBox="0 0 58 58" enable-background="new 0 0 58 58" xml:space="preserve">
<g>
	<circle fill="none" stroke="#A86C36" stroke-width="2" stroke-miterlimit="10" cx="29" cy="29.105" r="27.068"/>
	<g>
		<defs>
			<rect id="SVGID_1_" x="14.797" y="16.123" width="27.756" height="27.756"/>
		</defs>
		<clipPath id="SVGID_2_">
			<use xlink:href="#SVGID_1_"  overflow="visible"/>
		</clipPath>
		<path clip-path="url(#SVGID_2_)" fill-rule="evenodd" clip-rule="evenodd" fill="#A86C36" d="M39.309,27.845h-2.412
			c0.176,0.683,0.279,1.395,0.279,2.132c0,4.709-3.816,8.525-8.524,8.525s-8.525-3.816-8.525-8.525c0-0.737,0.104-1.449,0.28-2.132
			h-2.412v11.724c0,0.588,0.477,1.064,1.066,1.064h19.182c0.59,0,1.066-0.477,1.066-1.064V27.845z M39.309,20.385
			c0-0.588-0.477-1.064-1.066-1.064h-3.197c-0.588,0-1.064,0.477-1.064,1.064v3.198c0,0.588,0.477,1.065,1.064,1.065h3.197
			c0.59,0,1.066-0.478,1.066-1.065V20.385z M28.652,24.648c-2.943,0-5.329,2.385-5.329,5.328c0,2.942,2.386,5.329,5.329,5.329
			c2.942,0,5.329-2.387,5.329-5.329C33.981,27.033,31.594,24.648,28.652,24.648 M39.309,43.831H17.995
			c-1.766,0-3.197-1.432-3.197-3.198V19.32c0-1.766,1.432-3.197,3.197-3.197h21.314c1.766,0,3.197,1.432,3.197,3.197v21.312
			C42.506,42.399,41.075,43.831,39.309,43.831"/>
	</g>
</g>
</svg>
